<svg xmlns="http://www.w3.org/2000/svg" version="1.1" xmlns:xlink="http://www.w3.org/1999/xlink" width="20" height="20"
     x="0" y="0" viewBox="0 0 43.127 43.127"
>
    <g>
        <path d="M27.655 14.059c4.344.481 8.15.797 11.921 1.356 2.781.412 3.079 1.251 3.402 4.065.614 5.337-.799 10.355-2.06 15.394-.641 2.561-2.079 4.537-5.127 4.737-3.21.211-6.405.715-9.616.842-3.625.145-7.261.007-10.893-.001-1.944-.004-3.829-.2-5.438-1.463-1.56-1.224-3.441-.975-5.233-1.078-2.775-.161-3.695-.874-4.313-3.604-.794-3.514.089-6.792 1.552-9.955.332-.717.855-1.346 1.231-1.924 1.976-.382 3.943-.478 5.688-1.15 6.152-2.369 10.46-6.354 10.791-13.448.099-2.12.542-3.99 2.822-4.866 2.28-.875 4.048-.145 4.631 2.234.401 1.642.491 3.368.623 5.064.093 1.173.019 2.36.019 3.797zm-3.154-8.366-.684-.111c-1.253 1.398-1.246 1.398-1.503 3.949-.333 3.292-1.362 6.215-3.919 8.548-3.344 3.052-6.932 5.541-11.584 5.957-1.197.106-2.184.45-2.783 1.491-1.685 2.928-2.315 5.943-.687 9.178 3.267.482 6.504.684 9.22 2.745.557.422 1.546.344 2.34.372 4.029.142 8.064.409 12.089.307 3.612-.091 7.494.509 10.677-2.797-3.042-.135-5.968.728-8.688-.845-.056-1.39.787-1.64 1.928-1.566 1.306.084 2.611.171 3.919.217 2.572.092 4.14-1.115 4.688-3.673-3.288-.769-6.812 1.054-10.255-.809 1.354-1.847 2.983-1.31 4.397-1.511 1.676-.238 3.363-.439 5.01-.813 1.268-.288 1.676-1.229 1.373-2.623-3.109-.248-6.395 1.141-9.912-1.373 1.568-.415 2.447-.768 3.354-.858 1.197-.121 2.418.026 3.622-.055 2.663-.179 3.146-.979 2.277-3.866-3.834-.261-7.731-.653-11.636-.748-2.499-.06-3.16-.57-3.124-3.079.039-2.677-.073-5.357-.119-8.037z" style="" fill="#231f20" data-original="#231f20" ></path>
    </g>
</svg>
