<svg xmlns="http://www.w3.org/2000/svg" version="1.1" xmlns:xlink="http://www.w3.org/1999/xlink" width="80"
     height="80" x="0" y="0" viewBox="0 0 339.193 339.193">
    <g>
        <path d="M170.71 303.132c-1.836-2.448-4.896-2.448-6.732 0-3.06 3.672-1.836 7.956-1.836 12.853 0 6.12-.612 12.239-1.836 18.359-1.224 4.896 6.12 6.732 7.956 2.448 1.837-4.896 3.061-10.404 3.673-15.912.612-6.12 2.448-12.852-1.225-17.748zM171.322 277.428c-1.224-3.672-1.836-6.731-2.449-10.403 0-1.836.612-3.672 0-5.509-.612-1.836-.612-3.06-1.835-4.896-1.224-2.448-5.508-2.448-6.732 0-1.836 4.284-1.836 7.344-.612 11.628s1.836 7.956 4.284 12.24c2.448 3.672 8.569 1.224 7.344-3.06zM167.038 202.152c-1.224-1.836-4.284-1.836-6.12 0-2.448 3.06-1.836 5.508-1.836 9.18s.612 6.732.612 10.404c.612 4.896 7.344 4.896 7.344 0 0-3.061.612-6.12.612-9.181 1.224-3.671 2.449-6.731-.612-10.403zM167.65 174.612c-2.448-6.732-1.224-13.464-3.06-20.196-1.224-3.672-6.732-3.672-7.956 0-2.448 7.344 0 15.912 4.284 22.645 1.836 3.671 7.956 1.223 6.732-2.449zM163.366 96.276c-1.224-1.224-3.672-1.224-4.896 0-3.672 3.672-2.448 8.568-2.448 13.464 0 4.284 0 9.18.612 13.464.612 3.672 6.732 3.672 7.344 0 .612-4.284.612-7.956.612-12.24 1.224-4.896 2.448-10.404-1.224-14.688zM157.246 43.644c-3.672 0-6.12 3.672-4.896 6.732 1.224 4.896 1.224 11.016 1.836 15.912.612 3.06 6.12 3.06 6.732 0 .612-5.508 0-11.016 1.836-15.912.612-3.06-1.836-6.732-5.508-6.732z" fill="#000000" opacity="1" data-original="#000000" class=""></path><path
        d="M215.387 41.196c-14.076-15.3-29.376-30.6-48.349-40.392-2.448-1.224-5.508-1.224-7.344 1.224-12.852 15.3-22.644 32.436-36.108 47.124-4.896 4.896 3.06 12.24 7.344 7.344 12.24-13.464 21.42-29.376 33.66-42.84 15.912 9.792 26.929 23.868 41.005 36.72 6.731 6.12 15.3-3.06 9.792-9.18z"
        fill="#000000" opacity="1"></path>
    </g>
</svg>
