<svg xmlns="http://www.w3.org/2000/svg" version="1.1" xmlns:xlink="http://www.w3.org/1999/xlink" width="24" height="24" x="0" y="0" viewBox="0 0 369.915 369.914" style="enable-background:new 0 0 512 512" xml:space="preserve" class=""><g><path d="M364.507 268.292c-33.048-8.567-63.647-26.315-97.92-29.988-6.731-.611-7.956 7.956-4.896 11.629 4.283 4.896 9.792 12.239 15.912 18.359-17.137 1.225-33.049 7.344-50.185 11.017-15.912 3.672-31.824 1.224-46.511-4.284 3.672-3.672 6.731-7.956 10.404-12.24 24.479-34.884 39.779-149.328-23.868-157.284-36.108-4.896-69.156 41.004-70.992 73.44-2.448 42.84 23.256 78.948 58.14 100.368-14.688 9.792-32.436 14.688-51.408 15.911-39.78 1.837-67.932-24.479-81.396-59.976C-2.692 170.372 18.116 81.632 87.884 56.54c3.06-1.224 3.06-6.12-.612-6.12C-.244 51.644-12.484 182 9.548 242.588 34.64 311.744 117.26 326.433 169.28 286.04c4.284 1.836 9.18 4.284 14.076 5.508 33.659 11.628 63.647-4.896 96.083-8.567-4.284 7.956-8.568 16.523-14.688 23.868-4.284 5.508-.612 14.688 7.344 12.239 33.048-9.792 66.708-17.136 94.86-37.332 4.285-3.672 4.285-12.239-2.448-13.464zm-197.063 0c-7.344-4.284-14.688-9.18-20.808-14.688-42.228-35.496-48.348-101.592 4.284-130.968 24.48-13.464 38.555 16.524 43.452 35.496 7.344 27.54 3.06 59.364-8.568 85.068-5.508 9.792-11.628 17.748-18.36 25.092zm132.191 7.956c.612 0 1.225-1.224 1.225-1.836-1.836-6.732-7.345-12.24-13.464-17.748 19.584 5.508 37.943 14.076 57.527 20.196-18.359 9.792-38.556 15.912-59.363 22.032 3.672-6.732 6.731-13.465 12.239-18.973 1.225-1.223 1.836-2.447 1.836-3.671z" fill="#000000" opacity="1"></path></g></svg>
