<svg xmlns="http://www.w3.org/2000/svg" version="1.1" xmlns:xlink="http://www.w3.org/1999/xlink" width="24" height="24" x="0" y="0" viewBox="0 0 460.492 460.492" style="enable-background:new 0 0 512 512" xml:space="preserve" class=""><g><path d="M349.574 139.747c-6.592-3.469-12.279-6.464-16.118-8.871-27.894-17.491-57.863-34.698-89.062-51.146-29.234-15.417-59.913-30.356-91.175-44.412-8.1-3.639-15.879-8.221-24.115-13.065-13.584-7.988-27.627-16.255-43.826-20.479C70.406-2.099 58.331.427 50.356 8.798 39.723 19.962 39.103 38.09 39.893 54.345c1.333 27.121 1.655 54.857 1.97 81.684.152 12.901.308 25.796.559 38.682.478 23.737.731 47.469.983 71.196.66 61.388 1.34 124.857 6 187.393a25.548 25.548 0 0 0 1.274 6.251c1.912 12.213 11.243 20.941 22.625 20.941 3.057 0 6.178-.625 9.265-1.844 59.946-23.698 120.519-58.711 185.194-107.038 27.507-20.561 55.629-43.274 83.578-67.512 5.134-4.453 11.979-9.252 19.22-14.346 19.348-13.568 41.274-28.959 48.348-49.538 2.727-7.949 3.926-20.416-5.905-34.652-13.489-19.524-42.352-34.718-63.43-45.815zm9.749 69.189C294.025 268.96 200.035 348.73 97.914 396.875c-3.422-62.194-3.948-125.334-4.445-186.544-.396-48.109-.808-97.7-2.621-146.797 102.549 43.152 194.824 93.127 268.475 145.402z" fill="#000000" opacity="1" ></path></g></svg>
