<svg xmlns="http://www.w3.org/2000/svg" version="1.1" xmlns:xlink="http://www.w3.org/1999/xlink" width="16"
     height="16" x="0" y="0" viewBox="0 0 682.667 682.667" style="enable-background:new 0 0 512 512"
     xml:space="preserve" class=""><g><defs><clipPath id="a" clipPathUnits="userSpaceOnUse"><path d="M0 512h512V0H0Z" fill="#000000" opacity="1" data-original="#000000"></path></clipPath></defs><g
        clip-path="url(#a)" transform="matrix(1.33333 0 0 -1.33333 0 682.667)"><path d="M0 0h156.667c22.092 0 40-17.908 40-40v-195.333c0-22.092-17.908-40-40-40H-38.666c-22.092 0-40 17.908-40 40v156.667" style="stroke-width:40;stroke-linecap:round;stroke-linejoin:round;stroke-miterlimit:10;stroke-dasharray:none;stroke-opacity:1" transform="translate(295.333 295.333)" fill="none" stroke="#000000" stroke-width="40" stroke-linecap="round" stroke-linejoin="round" stroke-miterlimit="10" stroke-dasharray="none" stroke-opacity="" data-original="#000000" class=""></path>
    <path d="M0 0h-118"
          style="stroke-width:40;stroke-linecap:round;stroke-linejoin:round;stroke-miterlimit:10;stroke-dasharray:none;stroke-opacity:1"
          transform="translate(413.333 157.667)" fill="none" stroke="#000000" stroke-width="40" stroke-linecap="round"
          stroke-linejoin="round" stroke-miterlimit="10" stroke-dasharray="none" stroke-opacity=""
          data-original="#000000" class=""></path>
    <path d="M0 0h-195.333c-22.092 0-40 17.908-40 40v195.333c0 22.092 17.908 40 40 40H0c22.092 0 40-17.908 40-40V40C40 17.908 22.092 0 0 0Z"
          style="stroke-width:40;stroke-linecap:round;stroke-linejoin:round;stroke-miterlimit:10;stroke-dasharray:none;stroke-opacity:1"
          transform="translate(255.333 216.667)" fill="none" stroke="#000000" stroke-width="40" stroke-linecap="round"
          stroke-linejoin="round" stroke-miterlimit="10" stroke-dasharray="none" stroke-opacity=""
          data-original="#000000" class=""></path>
    <path d="M0 0h-118"
          style="stroke-width:40;stroke-linecap:round;stroke-linejoin:round;stroke-miterlimit:10;stroke-dasharray:none;stroke-opacity:1"
          transform="translate(216.667 354.333)" fill="none" stroke="#000000" stroke-width="40" stroke-linecap="round"
          stroke-linejoin="round" stroke-miterlimit="10" stroke-dasharray="none" stroke-opacity=""
          data-original="#000000" class=""></path>
    <path d="M0 0v118"
          style="stroke-width:40;stroke-linecap:round;stroke-linejoin:round;stroke-miterlimit:10;stroke-dasharray:none;stroke-opacity:1"
          transform="translate(157.667 295.333)" fill="none" stroke="#000000" stroke-width="40" stroke-linecap="round"
          stroke-linejoin="round" stroke-miterlimit="10" stroke-dasharray="none" stroke-opacity=""
          data-original="#000000" class=""></path></g></g></svg>
